<mxfile host="app.diagrams.net" modified="2024-03-19T03:17:40.237Z" agent="Mozilla/5.0 (Windows NT 10.0; Win64; x64) AppleWebKit/537.36 (KHTML, like Gecko) Chrome/122.0.0.0 Safari/537.36" version="24.0.7" etag="a7gqKHu_GeAT_WwBybKF" type="github">
  <diagram name="第 1 页" id="zE9aLh8oL7LbEnzDTzKU">
    <mxGraphModel>
      <root>
        <mxCell id="0" />
        <mxCell id="1" parent="0" />
      </root>
    </mxGraphModel>
  </diagram>
</mxfile>
